<svg width="45" height="63" viewBox="0 0 45 63" fill="none" xmlns="http://www.w3.org/2000/svg">
<path d="M22.4726 62.8409L4.15936 57.7935L0.0782471 12.3497H44.9218L40.8365 57.7865L22.4726 62.8409V62.8409Z" fill="#264DE4"/>
<path d="M37.3389 54.8932L40.8299 16.0653H22.5V58.9774L37.3389 54.8932V54.8932Z" fill="#2965F1"/>
<path d="M9.43408 32.9199L9.93717 38.4933H22.5001V32.9199H9.43408Z" fill="#EBEBEB"/>
<path d="M8.42297 21.639L8.93327 27.2125H22.5001V21.639H8.42297V21.639Z" fill="#EBEBEB"/>
<path d="M22.4999 47.3948L22.4753 47.4013L16.2231 45.7253L15.8234 41.2802H10.1879L10.9743 50.0314L22.4741 53.2006L22.4999 53.1936V47.3948Z" fill="#EBEBEB"/>
<path d="M35.5301 32.9198L36.5435 21.639H22.4806V27.2125H30.3912L29.8803 32.9198H22.4806V38.4933H29.3936L28.7418 45.7218L22.4805 47.3996V53.198L33.9894 50.0314L34.0738 49.0897L35.3932 34.4165L35.5301 32.9198V32.9198Z" fill="white"/>
</svg>
