<svg width="42" height="63" viewBox="0 0 42 63" fill="none" xmlns="http://www.w3.org/2000/svg">
<path d="M10.5 63C16.296 63 21 58.296 21 52.5V42H10.5C4.704 42 0 46.704 0 52.5C0 58.296 4.704 63 10.5 63Z" fill="#0ACF83"/>
<path d="M0 31.5C0 25.704 4.704 21 10.5 21H21V42H10.5C4.704 42 0 37.296 0 31.5Z" fill="#A259FF"/>
<path d="M0 10.5C0 4.704 4.704 0 10.5 0H21V21H10.5C4.704 21 0 16.296 0 10.5Z" fill="#F24E1E"/>
<path d="M21 0H31.5C37.296 0 42 4.704 42 10.5C42 16.296 37.296 21 31.5 21H21V0Z" fill="#FF7262"/>
<path d="M42 31.5C42 37.296 37.296 42 31.5 42C25.704 42 21 37.296 21 31.5C21 25.704 25.704 21 31.5 21C37.296 21 42 25.704 42 31.5Z" fill="#1ABCFE"/>
</svg>
