<svg width="63" height="63" viewBox="0 0 63 63" fill="none" xmlns="http://www.w3.org/2000/svg">
<path d="M61.8119 28.6932L34.3055 1.18833C32.7223 -0.395775 30.1531 -0.395775 28.568 1.18833L22.8562 6.90017L30.1019 14.1459C31.7857 13.5769 33.7166 13.9586 35.0588 15.3008C36.4074 16.6516 36.7863 18.599 36.2036 20.2882L43.1865 27.2713C44.8759 26.6893 46.8252 27.0658 48.1746 28.4174C50.0604 30.3025 50.0604 33.3577 48.1746 35.244C46.2883 37.1306 43.233 37.1306 41.3457 35.244C39.9272 33.8241 39.5768 31.7409 40.2949 29.9934L33.7828 23.4812L33.782 40.6185C34.2541 40.8519 34.6853 41.1602 35.0588 41.5315C36.9446 43.4165 36.9446 46.472 35.0588 48.3598C33.1724 50.2454 30.1157 50.2454 28.2321 48.3598C26.3463 46.472 26.3463 43.4168 28.2321 41.5317C28.684 41.0796 29.2211 40.7215 29.8123 40.4782V23.1812C29.2203 22.9396 28.6829 22.5813 28.2321 22.1277C26.8033 20.7009 26.4598 18.6044 27.1919 16.85L20.0493 9.70662L1.18863 28.566C-0.396211 30.1516 -0.396211 32.7211 1.18863 34.3054L28.6955 61.8108C30.2791 63.3952 32.8479 63.3952 34.4334 61.8108L61.8116 34.4331C63.396 32.8483 63.396 30.2774 61.8116 28.6932" fill="#DE4C36"/>
</svg>
