<svg width="65" height="63" viewBox="0 0 65 63" fill="none" xmlns="http://www.w3.org/2000/svg">
<path d="M32.5003 0C14.5531 0 0 14.4414 0 32.2563C0 46.5079 9.31227 58.5991 22.2257 62.8642C23.8499 63.1628 24.4463 62.1644 24.4463 61.3123C24.4463 60.5432 24.4159 58.0023 24.4022 55.3072C15.3606 57.2582 13.4527 51.5012 13.4527 51.5012C11.9742 47.7729 9.84395 46.7813 9.84395 46.7813C6.89533 44.7794 10.0664 44.8207 10.0664 44.8207C13.3298 45.048 15.0483 48.1446 15.0483 48.1446C17.9471 53.0757 22.6515 51.6502 24.506 50.8259C24.7978 48.7413 25.64 47.318 26.5695 46.5126C19.3507 45.6972 11.7622 42.9312 11.7622 30.5716C11.7622 27.0499 13.0317 24.1723 15.1107 21.9134C14.7733 21.101 13.6609 17.8204 15.4256 13.3772C15.4256 13.3772 18.1548 12.5103 24.3656 16.6837C26.958 15.969 29.7383 15.6106 32.5003 15.5983C35.2622 15.6106 38.0448 15.9687 40.642 16.6837C46.8452 12.5105 49.5706 13.3774 49.5706 13.3774C51.3396 17.8202 50.2267 21.1012 49.8893 21.9134C51.9731 24.1723 53.234 27.0499 53.234 30.5716C53.234 42.9607 45.631 45.6886 38.3939 46.4872C39.5596 47.4881 40.5983 49.4512 40.5983 52.4606C40.5983 56.7764 40.5608 60.2499 40.5608 61.3123C40.5608 62.1709 41.1458 63.1766 42.7931 62.8596C55.6994 58.59 65 46.5033 65 32.2565C65 14.4414 50.4489 0 32.5003 0ZM12.1725 45.9497C12.1009 46.1099 11.8468 46.1581 11.6154 46.048C11.3796 45.9429 11.2473 45.7244 11.3235 45.5636C11.3935 45.3986 11.6482 45.3524 11.8833 45.4631C12.1195 45.5684 12.254 45.7889 12.1725 45.9497ZM13.7711 47.3654C13.6162 47.508 13.3131 47.4418 13.1074 47.2165C12.8949 46.9917 12.855 46.6908 13.0122 46.5462C13.1721 46.4035 13.4659 46.4703 13.6789 46.6951C13.8917 46.9226 13.9329 47.2213 13.7711 47.3654ZM14.868 49.1768C14.6687 49.3141 14.3432 49.1854 14.1418 48.8986C13.9428 48.6118 13.9428 48.2678 14.1461 48.13C14.348 47.9921 14.6687 48.1161 14.8726 48.4009C15.0711 48.6924 15.0711 49.0364 14.8677 49.177L14.868 49.1768ZM16.7225 51.2747C16.5445 51.4697 16.1649 51.4173 15.8872 51.1512C15.603 50.8911 15.5241 50.5222 15.7028 50.3272C15.8831 50.1316 16.2647 50.1866 16.5445 50.4506C16.8264 50.7102 16.9127 51.0819 16.7225 51.2747ZM19.1199 51.9828C19.0412 52.2356 18.6756 52.3505 18.3077 52.2431C17.94 52.1325 17.6996 51.8366 17.7737 51.5814C17.8501 51.3269 18.2173 51.2074 18.588 51.3223C18.9551 51.4322 19.1963 51.726 19.1199 51.9831V51.9828ZM21.8479 52.2834C21.857 52.5493 21.545 52.7698 21.1585 52.7748C20.77 52.7834 20.4554 52.5682 20.4511 52.3061C20.4511 52.0377 20.7563 51.8193 21.1451 51.8127C21.5315 51.8051 21.8479 52.0188 21.8479 52.2834V52.2834ZM24.5279 52.1814C24.5741 52.4409 24.3057 52.7076 23.9218 52.7786C23.5447 52.8469 23.1954 52.6866 23.1474 52.4293C23.1006 52.1632 23.3741 51.8966 23.7506 51.8278C24.1351 51.7616 24.4788 51.9175 24.5279 52.1814Z" fill="#1F2833"/>
</svg>
