<svg width="45" height="63" viewBox="0 0 45 63" fill="none" xmlns="http://www.w3.org/2000/svg">
<path d="M44.9218 12.3497L40.8365 57.7865L22.4726 62.8408L4.15936 57.7935L0.0782471 12.3497H44.9218Z" fill="#E44D26"/>
<path d="M22.5 58.9774L37.3389 54.8932L40.8299 16.0654H22.5V58.9774Z" fill="#F16529"/>
<path d="M14.5581 27.2125H22.4999V21.639H8.42285L8.55715 23.1343L9.93703 38.4933H22.4999V32.9199H15.0712L14.5581 27.2125V27.2125Z" fill="#EBEBEB"/>
<path d="M15.8235 41.2802H10.188L10.9744 50.0314L22.4742 53.2006L22.5001 53.1936V47.3948L22.4755 47.4013L16.2233 45.7253L15.8235 41.2802V41.2802Z" fill="#EBEBEB"/>
<path d="M22.4806 38.4934H29.3936L28.7418 45.7218L22.4805 47.3996V53.198L33.9894 50.0314L34.0738 49.0897L35.3932 34.4165L35.5301 32.9199H22.4806V38.4934Z" fill="white"/>
<path d="M22.4807 27.1989V27.2125H36.041L36.1535 25.9598L36.4094 23.1343L36.5436 21.639H22.4807V27.1991V27.1989Z" fill="white"/>
</svg>
