<svg width="53" height="53" viewBox="0 0 53 53" fill="none" xmlns="http://www.w3.org/2000/svg">
<path d="M0 0H53V53H0V0Z" fill="#F7DF1E"/>
<path d="M13.9356 44.2906L17.9914 41.836C18.774 43.2234 19.4857 44.3972 21.1931 44.3972C22.8297 44.3972 23.8618 43.7571 23.8618 41.2669V24.3322H28.8423V41.3373C28.8423 46.4959 25.8184 48.8441 21.4066 48.8441C17.4222 48.8441 15.1095 46.7806 13.9354 44.2902" fill="#1F2833"/>
<path d="M31.5476 43.7569L35.6029 41.4089C36.6706 43.1524 38.0581 44.433 40.5126 44.433C42.5765 44.433 43.8924 43.4012 43.8924 41.9781C43.8924 40.2705 42.5405 39.6655 40.2636 38.6697L39.0187 38.1356C35.4253 36.6062 33.0417 34.685 33.0417 30.6292C33.0417 26.8936 35.8878 24.0473 40.335 24.0473C43.5013 24.0473 45.7783 25.1504 47.4147 28.032L43.5365 30.5226C42.6825 28.9929 41.7579 28.3881 40.3348 28.3881C38.8761 28.3881 37.951 29.3131 37.951 30.5226C37.951 32.0168 38.8761 32.6219 41.0106 33.5469L42.2556 34.0805C46.4894 35.8951 48.873 37.7449 48.873 41.9071C48.873 46.3901 45.351 48.8447 40.6193 48.8447C35.9944 48.8447 33.0059 46.639 31.5474 43.7571" fill="#1F2833"/>
</svg>
