<svg width="89" height="34" viewBox="0 0 89 34" fill="none" xmlns="http://www.w3.org/2000/svg">
<path d="M0.0597315 17.2748C0.119463 26.5332 0.238926 34.0594 0.388255 33.9996C0.507718 33.9698 20.4879 33.9399 44.7987 33.9399H89V17.2151V0.490251H44.5H0L0.0597315 17.2748ZM86.3121 17.2151V31.252H58.9849H31.6577V17.2151V3.17817H58.9849H86.3121V17.2151ZM23.7433 7.71777C24.1913 7.92683 24.7289 8.43455 24.9678 8.88253C26.1326 11.1523 25.3262 12.2872 17.3221 19.6641C12.3346 24.2634 10.453 26.1748 11.5282 25.4879C12.5436 24.8906 19.8906 24.9503 20.906 25.5775C21.6228 26.0255 21.0852 26.2047 18.1883 26.4735C16.6352 26.6228 14.3654 26.9513 13.1409 27.2201C10.6322 27.7577 9.37785 27.6382 8.24295 26.7423C6.89899 25.697 7.16779 24.7413 9.58691 22.1429C11.6178 19.9926 15.7393 15.9309 20.5477 11.3913C21.7124 10.2862 22.698 9.27079 22.698 9.15132C22.698 9.06172 21.5332 9.36038 20.0997 9.83824C17.143 10.8238 13.6188 11.2121 12.5735 10.6745C12.0658 10.4057 11.9463 10.0772 12.006 9.42012L12.0956 8.52414L15.6795 8.40468C18.4272 8.31508 21.8319 7.83723 22.907 7.38924C22.9369 7.35938 23.3252 7.50871 23.7433 7.71777Z" fill="#55FCF1"/>
<path d="M44.0519 12.1677C43.3949 12.3469 42.5586 12.3768 42.2002 12.2872C41.7224 12.1677 41.5133 12.2573 41.5133 12.5559C41.5133 13.3325 42.7677 13.3325 45.5452 12.5261C45.8737 12.4365 44.6194 13.8999 42.7976 15.7815C40.9459 17.663 39.4227 19.3653 39.4227 19.5445C39.4227 20.321 40.5576 20.5002 43.0664 20.0821L45.5452 19.664L43.3949 19.6341C41.2744 19.6043 40.707 19.3056 41.6627 18.768C42.6482 18.2304 47.1878 13.5117 47.1878 13.0338C47.1878 11.8989 46.2919 11.66 44.0519 12.1677Z" fill="#55FCF1"/>
<path d="M48.3827 12.2274C48.3827 12.4066 47.9048 13.7804 47.3374 15.2439C46.0233 18.5888 45.8142 19.6939 46.3817 20.1419C46.7401 20.4704 46.979 20.2613 47.7256 18.9472C48.2035 18.0811 48.8904 17.0358 49.2189 16.6177C49.8461 15.871 49.8461 15.871 49.2189 17.6331L48.5619 19.3952L49.2488 19.9328C50.1149 20.6197 50.2344 20.6197 50.9511 19.9627C51.4887 19.4251 51.5485 19.4251 52.3548 20.0224L53.1612 20.6197L53.9676 19.9925L54.8038 19.3952L55.6102 19.9925C56.4166 20.5898 56.4464 20.5898 57.0438 20.0523C57.7605 19.3952 57.7605 19.4549 57.1931 21.0976C56.8646 21.9935 56.8347 22.5012 57.0438 22.9194C57.4917 23.7257 58.1488 23.6063 58.3877 22.6804C58.4773 22.2325 58.776 21.4261 58.985 20.8885C59.3733 19.9925 59.4629 19.9328 60.0005 20.2613C60.8367 20.769 62.0313 19.8731 63.0169 18.0512C63.6142 16.9163 63.7038 16.4982 63.435 15.8113C63.0766 14.766 62.33 14.6167 61.5236 15.4231L60.8666 16.0801L60.4485 15.4529C60.0005 14.8556 58.9253 14.5271 59.2837 15.1244C59.5226 15.5127 58.776 17.1254 57.6411 18.6486C56.5958 20.112 56.2075 20.112 56.6854 18.7083C56.8646 18.2006 56.9542 17.6033 56.8646 17.3643C56.5062 16.4684 55.879 16.7073 54.983 18.1408C53.6391 20.2016 52.9223 20.5301 53.3404 18.8875C53.6092 17.7227 55.3713 15.9606 55.9686 16.1996C56.2374 16.2892 56.4464 16.2294 56.4464 16.0801C56.4464 15.5724 55.5505 14.8257 54.9532 14.8257C54.1169 14.8257 52.7132 16.1697 52.0263 17.5734C50.5928 20.56 49.6968 20.7392 50.8914 17.8123C51.4589 16.4086 51.5783 15.8113 51.3394 15.3932C50.9511 14.6167 50.4136 14.6764 49.5773 15.5724C49.1891 15.9905 48.8307 16.2593 48.7709 16.1996C48.7112 16.1398 48.9203 15.3932 49.2787 14.557C49.7266 13.3922 49.8162 12.8546 49.5773 12.4066C49.2189 11.7794 48.3827 11.6301 48.3827 12.2274ZM62.2703 16.0801C61.882 17.3942 61.0458 18.7979 60.3887 19.2459C59.3733 19.9029 59.5226 19.1563 60.8068 17.1254C61.882 15.3932 62.6287 14.8855 62.2703 16.0801Z" fill="#55FCF1"/>
<path d="M65.5554 15.7816C64.988 16.3192 64.3309 17.245 64.0621 17.8722C63.6739 18.8876 63.6739 19.0071 64.2413 19.7239C64.988 20.6497 65.3762 20.6796 66.4215 19.8732C66.8396 19.5447 67.198 19.3953 67.198 19.5745C67.198 19.7537 67.4967 20.0225 67.8252 20.2316C68.3628 20.5004 68.6316 20.4406 69.3484 19.903L70.2443 19.246L70.6625 19.8732C71.2896 20.7393 71.5584 20.6497 71.7974 19.5447C71.9766 18.6188 73.4698 16.0205 73.7984 16.0205C73.888 16.0205 73.9178 16.3789 73.8581 16.8269L73.7386 17.6631L74.4853 16.7671C74.9034 16.2594 75.2618 15.692 75.2618 15.4829C75.2618 14.8557 74.3658 14.7064 73.7685 15.2739C73.2309 15.7517 73.1712 15.7517 72.7232 15.3037C72.0363 14.6467 71.7675 14.7064 71.5584 15.6024C71.3494 16.349 69.1094 19.903 68.8406 19.903C68.751 19.903 68.7809 19.3356 68.8705 18.6188C69.0198 17.693 68.9302 17.245 68.6017 16.9762C68.2433 16.6775 68.0641 16.7671 67.646 17.4242C66.8396 18.6785 65.645 19.903 65.3762 19.7239C64.988 19.4849 66.1826 17.3645 67.0487 16.6775C67.4967 16.3192 68.0343 16.14 68.2732 16.2296C68.8705 16.4386 68.8108 15.901 68.1537 15.3336C67.3474 14.5869 66.7202 14.7064 65.5554 15.7816Z" fill="#55FCF1"/>
</svg>
