<svg width="125" height="37" viewBox="0 0 125 37" fill="none" xmlns="http://www.w3.org/2000/svg">
<path fill-rule="evenodd" clip-rule="evenodd" d="M116.385 15.4087C116.273 15.4314 116.16 15.6816 116.16 15.818C116.137 16.7284 116.115 19.1404 116.115 20.7786C116.115 20.8242 116.182 20.9152 116.25 20.9152C116.588 20.9379 117.399 20.9606 118.097 20.9606C119.066 20.9606 119.629 20.8242 119.945 20.6879C120.756 20.2781 121.139 19.3906 121.139 18.412C121.139 16.2051 119.607 15.3631 117.331 15.3631C117.174 15.3404 116.723 15.3404 116.385 15.4087ZM122.198 25.5799C122.198 23.3272 120.553 22.0756 117.579 22.0756C117.444 22.0756 116.498 22.0529 116.272 22.0983C116.205 22.1212 116.115 22.1668 116.115 22.2351C116.115 23.8504 116.092 26.422 116.16 27.4231C116.205 27.8553 116.52 28.4698 116.904 28.6518C117.309 28.8793 118.233 28.9247 118.863 28.9247C120.643 28.9247 122.198 27.9236 122.198 25.5799ZM111.789 14.1573C112.014 14.1573 112.69 14.2254 114.425 14.2254C116.07 14.2254 117.376 14.18 118.976 14.18C120.936 14.18 123.64 14.8852 123.64 17.8434C123.64 19.2996 122.626 20.4603 121.297 21.0291C121.229 21.0518 121.229 21.0972 121.297 21.1199C123.189 21.598 124.856 22.781 124.856 25.0108C124.856 27.1955 123.505 28.5835 121.544 29.4482C120.35 29.9714 118.863 30.1534 117.354 30.1534C116.205 30.1534 113.118 30.017 111.406 30.0627C111.226 29.9941 111.564 29.175 111.721 29.0386C112.127 29.0157 112.442 28.993 112.871 28.8564C113.479 28.6974 113.546 28.5152 113.636 27.5824C113.682 26.7859 113.682 23.9641 113.682 21.9619C113.682 19.2087 113.704 17.3428 113.682 16.4327C113.659 15.7275 113.411 15.4997 112.916 15.3631C112.532 15.295 111.902 15.2038 111.384 15.1357C111.271 15.0218 111.654 14.2481 111.789 14.1573ZM98.7893 28.3105C99.3303 28.7425 100.389 28.9245 101.335 28.9245C102.552 28.9245 103.769 28.6974 104.94 27.6275C106.134 26.5356 106.968 24.8518 106.968 22.1668C106.968 19.5953 105.999 17.5019 104.016 16.2734C102.89 15.5677 101.448 15.2723 99.7807 15.2723C99.2851 15.2723 98.812 15.295 98.5192 15.4314C98.4514 15.477 98.2939 15.6816 98.2939 15.7953C98.2487 16.2505 98.2487 19.7546 98.2487 21.8026C98.2487 23.9187 98.2487 26.8769 98.2939 27.2182C98.2939 27.5597 98.4514 28.0829 98.7895 28.3105H98.7893ZM93.675 14.1571C94.1032 14.1571 95.7478 14.2254 96.5363 14.2254C97.956 14.2254 98.9697 14.1573 101.651 14.1573C103.904 14.1573 105.796 14.7715 107.148 15.9319C108.792 17.3655 109.649 19.3453 109.649 21.757C109.649 25.193 108.094 27.1728 106.54 28.3105C104.985 29.4709 102.957 30.1534 100.074 30.1534C98.5417 30.1534 95.9057 30.108 93.7202 30.0851H93.6977C93.5852 29.8804 93.8779 29.084 94.0581 29.0613C94.644 28.993 94.8017 28.9701 95.0947 28.8567C95.5676 28.6744 95.6579 28.4242 95.7255 27.5824C95.7929 26.0122 95.7705 24.1236 95.7705 21.9846C95.7705 20.4603 95.7929 17.4792 95.7478 16.5235C95.6804 15.7273 95.3425 15.5224 94.6665 15.3858C94.3286 15.3177 93.8779 15.2265 93.2473 15.1584C93.1569 14.9989 93.5624 14.2937 93.675 14.1573V14.1571Z" fill="#8E714E"/>
<path fill-rule="evenodd" clip-rule="evenodd" d="M66.4143 29.1977C65.8511 29.1294 65.4456 29.0386 64.95 28.811C64.8823 28.7654 64.7695 28.5381 64.7695 28.4468C64.7246 27.6504 64.7246 25.375 64.7246 23.8507C64.7246 22.6217 64.522 21.5524 64.0037 20.8015C63.3953 19.9365 62.5168 19.4362 61.3901 19.4362C60.3989 19.4362 59.0696 20.1188 57.9656 21.0745C57.9431 21.0972 57.7629 21.2567 57.7854 21.0062C57.7854 20.7559 57.8306 20.2554 57.853 19.9139C57.8757 19.5953 57.6953 19.4362 57.6953 19.4362C56.9744 19.8002 54.9468 20.2781 54.2031 20.3461C53.6626 20.4603 53.5273 20.9835 54.0908 21.1655H54.1133C54.7212 21.3474 55.127 21.5524 55.4421 21.7573C55.6675 21.9392 55.645 22.1895 55.645 22.3944C55.6675 24.1007 55.6675 26.7176 55.6001 28.1512C55.5776 28.7201 55.4199 28.9247 55.0142 29.0157L55.0593 28.993C54.7439 29.0613 54.4961 29.1294 54.113 29.175C53.9778 29.3116 53.9778 30.0397 54.113 30.199C54.3608 30.199 55.6675 30.1307 56.7493 30.1307C58.2361 30.1307 59.0022 30.199 59.385 30.199C59.5427 30.017 59.5879 29.3343 59.4978 29.175C59.0696 29.1523 58.7542 29.1069 58.4614 29.0157C58.0559 28.9245 57.9431 28.7201 57.9204 28.2422C57.8757 27.0359 57.8757 24.4876 57.8757 22.7584C57.8757 22.2805 58.0107 22.0529 58.1458 21.9163C58.6641 21.4614 59.4978 21.1428 60.2412 21.1428C60.9622 21.1428 61.4351 21.3704 61.7957 21.6663C62.2913 22.0756 62.449 22.6674 62.5166 23.0996C62.6292 24.078 62.5842 26.0122 62.5842 27.696C62.5842 28.6061 62.5166 28.8337 62.179 28.9474C62.021 29.0157 61.6155 29.1069 61.1423 29.1521C60.9846 29.3116 61.0298 30.017 61.1423 30.1763C61.7957 30.1763 62.5618 30.108 63.6882 30.108C65.085 30.108 65.9863 30.1763 66.3469 30.1763C66.4592 30.0397 66.5044 29.3799 66.4143 29.1977ZM72.655 20.5059C71.4612 20.5059 70.7175 21.4387 70.7175 22.8947C70.7175 24.3739 71.3709 26.0805 73.2183 26.0805C73.5337 26.0805 74.1196 25.9439 74.3897 25.6253C74.8179 25.216 75.1108 24.3966 75.1108 23.5319C75.1108 21.6433 74.187 20.5056 72.655 20.5056V20.5059ZM72.4973 30.563C72.0469 30.563 71.7312 30.6996 71.5286 30.8135C70.5823 31.4275 70.1543 32.0192 70.1543 32.7249C70.1543 33.3845 70.4021 33.9077 70.9429 34.3629C71.5962 34.9318 72.4973 35.205 73.6462 35.205C75.9443 35.205 76.9583 33.9534 76.9583 32.7249C76.9583 31.8599 76.53 31.2911 75.6516 30.9728C75.0208 30.6996 73.8718 30.563 72.4973 30.563ZM72.655 36.4793C71.2808 36.4793 70.2893 36.1834 69.4333 35.5236C68.5996 34.8864 68.2393 33.9307 68.2393 33.2708C68.2393 33.0889 68.2844 32.5881 68.6899 32.1331C68.9375 31.8599 69.4785 31.3367 70.7627 30.4493C70.8076 30.4266 70.8301 30.4039 70.8301 30.3581C70.8301 30.3127 70.7849 30.2671 70.74 30.2446C69.6812 29.8351 69.3657 29.175 69.2754 28.811V28.7654C69.2532 28.6288 69.208 28.4925 69.4109 28.3559C69.5686 28.2422 69.794 28.1056 70.0415 27.9465C70.4246 27.7187 70.8301 27.4684 71.0779 27.2635C71.1231 27.2182 71.1231 27.1728 71.1231 27.1272C71.1231 27.0816 71.0779 27.0359 71.0327 27.0135C69.4561 26.49 68.6675 25.3067 68.6675 23.5319C68.6675 22.3715 69.1855 21.3248 70.1091 20.6649C70.74 20.1644 72.3171 19.5499 73.3535 19.5499H73.4211C74.48 19.5726 75.0657 19.8002 75.8992 20.0961C76.3499 20.2554 76.7781 20.3234 77.364 20.3234C78.2424 20.3234 78.6255 20.0505 78.9407 19.7321C78.9634 19.7775 79.0085 19.8914 79.031 20.1871C79.0535 20.483 78.9634 20.9152 78.738 21.2338C78.5579 21.4841 78.1523 21.6663 77.7468 21.6663H77.634C77.2285 21.6207 77.0481 21.575 77.0481 21.575L76.9583 21.6207C76.9358 21.6663 76.9583 21.7116 76.9807 21.7799L77.0034 21.8256C77.0483 22.0302 77.1384 22.6444 77.1384 22.804C77.1384 24.6698 76.395 25.4887 75.6064 26.1031C74.8403 26.672 73.9619 27.0359 72.9705 27.1272C72.948 27.1272 72.8582 27.1272 72.655 27.1499C72.5425 27.1499 72.3848 27.1728 72.3621 27.1728H72.3396C72.1594 27.2182 71.709 27.4458 71.709 27.8324C71.709 28.1736 71.9116 28.5834 72.8804 28.6518C73.083 28.6744 73.2856 28.6744 73.5112 28.6974C74.7954 28.7881 76.395 28.902 77.1384 29.1523C78.1748 29.5389 78.8281 30.472 78.8281 31.587C78.8281 33.2711 77.6343 34.841 75.6516 35.8192C74.6829 36.2517 73.7139 36.4793 72.655 36.4793ZM85.4968 20.6196C85.0239 20.6196 84.5957 20.733 84.2803 20.9606C83.4019 21.5067 82.9512 22.5991 82.9512 24.1917C82.9512 27.1728 84.438 29.2662 86.5559 29.2662C87.1868 29.2662 87.6824 29.084 88.1104 28.7201C88.7637 28.1736 89.1018 27.0816 89.1018 25.557C89.1018 22.5991 87.6372 20.6193 85.4971 20.6193L85.4968 20.6196ZM85.9026 30.3583C82.0725 30.3583 80.6982 27.5141 80.6982 24.8518C80.6982 22.9859 81.4417 21.5524 82.9285 20.5283C83.9875 19.8685 85.2493 19.5045 86.3757 19.5045C89.3045 19.5045 91.3547 21.6207 91.3547 24.6698C91.3547 26.7403 90.5437 28.3785 88.989 29.3799C88.2456 29.8804 86.9614 30.3583 85.9023 30.3583H85.9026ZM45.7546 20.6193C45.2815 20.6193 44.8535 20.733 44.5378 20.9606C43.6594 21.5067 43.2087 22.5991 43.2087 24.1917C43.2087 27.1728 44.6956 29.2662 46.8135 29.2662C47.4443 29.2662 47.9399 29.084 48.3682 28.7201C49.0212 28.1736 49.3594 27.0816 49.3594 25.557C49.3594 22.5991 47.9175 20.6193 45.7546 20.6193ZM46.1602 30.3583C42.3301 30.3583 40.9558 27.5141 40.9558 24.8518C40.9558 22.9859 41.6992 21.5524 43.186 20.5283C44.2451 19.8685 45.5068 19.5045 46.6333 19.5045C49.5623 19.5045 51.6123 21.6207 51.6123 24.6698C51.6123 26.7403 50.8013 28.3785 49.2466 29.3799C48.5256 29.8804 47.2415 30.3583 46.1602 30.3583ZM20.4087 30.1307C20.3635 30.0627 20.3184 29.8578 20.3411 29.6075C20.3411 29.4253 20.3862 29.3116 20.4087 29.2662C20.8818 29.1977 21.1296 29.1294 21.3999 29.0613C21.8506 28.9474 22.0308 28.6974 22.0532 28.1285C22.1211 26.7632 22.1211 24.169 22.0984 22.3715V22.3259C22.0984 22.1212 22.0984 21.8707 21.8506 21.6887C21.49 21.4614 21.062 21.2567 20.4988 21.0969C20.2961 21.0291 20.1609 20.9152 20.1833 20.7788C20.1833 20.6422 20.3186 20.483 20.6116 20.4373C21.355 20.369 23.2922 19.8914 24.0583 19.5499C24.1035 19.5953 24.1711 19.7321 24.1711 19.9141L24.1487 20.1641C24.126 20.4147 24.1035 20.7105 24.1035 21.0062C24.1035 21.0972 24.1938 21.1655 24.2837 21.1655C24.3289 21.1655 24.374 21.1428 24.4189 21.1199C25.8608 19.9822 27.1675 19.5726 27.8433 19.5726C28.9475 19.5726 29.8037 20.0961 30.457 21.1882C30.5019 21.2567 30.5471 21.2794 30.6147 21.2794C30.6597 21.2794 30.727 21.2567 30.7497 21.2111C32.0791 20.1871 33.4084 19.5726 34.2869 19.5726C36.3821 19.5726 37.6213 21.1428 37.6213 23.8051C37.6213 24.5559 37.6213 25.5343 37.5989 26.422C37.5989 27.2182 37.5764 27.9463 37.5764 28.4698C37.5764 28.5832 37.7339 28.9474 37.9817 29.0157C38.2971 29.175 38.7253 29.2433 39.2886 29.3343H39.311C39.3562 29.4936 39.2661 30.0851 39.176 30.199C39.0408 30.199 38.8379 30.199 38.6128 30.1763C38.0425 30.1463 37.4715 30.1311 36.9004 30.1307C35.5037 30.1307 34.7827 30.1534 34.084 30.199C34.0393 30.017 34.0166 29.4709 34.084 29.3343C34.4897 29.2662 34.6924 29.1977 34.9404 29.1296C35.3911 28.993 35.5037 28.7881 35.5264 28.1966C35.5264 27.7643 35.6162 24.078 35.481 23.1906C35.3459 22.2805 34.6699 21.2111 33.1829 21.2111C32.6196 21.2111 31.7412 21.4387 30.885 22.0983C30.8401 22.1439 30.7947 22.2576 30.7947 22.3259V22.3488C30.885 22.8264 30.885 23.3728 30.885 24.2146V25.6936C30.885 26.7176 30.8623 27.6733 30.885 28.4012C30.885 28.902 31.178 29.0157 31.4258 29.1069C31.561 29.1294 31.6509 29.1523 31.7637 29.175C31.9663 29.2206 32.1692 29.2662 32.4846 29.3343C32.5298 29.4255 32.5298 29.7211 32.4622 29.9714C32.4394 30.108 32.3943 30.1761 32.3718 30.199C31.606 30.1763 30.8174 30.1534 29.6685 30.1534C29.3306 30.1534 28.7446 30.1763 28.249 30.1763C27.8433 30.1763 27.4604 30.199 27.2353 30.199C27.2126 30.1534 27.1675 29.9944 27.1675 29.7438C27.1675 29.5392 27.2126 29.3799 27.2578 29.3343C27.3704 29.3116 27.4604 29.2889 27.5732 29.2889C27.8433 29.2433 28.0688 29.1977 28.2939 29.1523C28.6772 29.0386 28.8123 28.8337 28.8347 28.3332C28.9023 27.1955 28.97 23.9417 28.8122 23.1223C28.542 21.8026 27.7986 21.1428 26.6042 21.1428C25.906 21.1428 25.0271 21.4841 24.3064 22.0305C24.1936 22.1212 24.1035 22.3485 24.1035 22.5535V23.8961C24.1035 25.5343 24.1035 27.5824 24.126 28.4698C24.1487 28.7425 24.2385 29.0613 24.7568 29.175C24.8696 29.1977 25.0498 29.2433 25.2751 29.2662L25.6804 29.3343C25.7258 29.4709 25.7031 30.017 25.613 30.199C25.3877 30.199 25.1174 30.1763 24.8017 30.1763C24.3288 30.1534 23.7205 30.1307 23.0447 30.1307C22.2561 30.1307 21.6929 30.1534 21.2422 30.1763C20.9268 30.1307 20.6789 30.1307 20.4087 30.1307Z" fill="#1F2833"/>
<path fill-rule="evenodd" clip-rule="evenodd" d="M8.55793 35.5919L7.63434 35.273C7.63434 35.273 7.74714 30.5176 6.0572 30.1763C4.93097 28.8564 6.23786 -25.7995 10.293 29.9941C10.293 29.9941 8.89606 30.6993 8.64826 31.9056C8.37775 33.0889 8.55793 35.5919 8.55793 35.5919Z" fill="white"/>
<path fill-rule="evenodd" clip-rule="evenodd" d="M8.55793 35.5919L7.63434 35.273C7.63434 35.273 7.74714 30.5176 6.0572 30.1763C4.93097 28.8564 6.23786 -25.7995 10.293 29.9941C10.293 29.9941 8.89606 30.6993 8.64826 31.9056C8.37775 33.0889 8.55793 35.5919 8.55793 35.5919Z" fill="#A6A385"/>
<path fill-rule="evenodd" clip-rule="evenodd" d="M9.05371 30.9954C9.05371 30.9954 17.1421 25.6253 15.2493 14.4527C13.4246 6.32978 9.12134 3.66751 8.64819 2.64348C8.13013 1.91534 7.63428 0.641287 7.63428 0.641287L7.97241 23.236C7.97241 23.2589 7.27393 30.1534 9.05395 30.9957" fill="white"/>
<path fill-rule="evenodd" clip-rule="evenodd" d="M9.05371 30.9954C9.05371 30.9954 17.1421 25.6253 15.2493 14.4527C13.4246 6.32978 9.12134 3.66751 8.64819 2.64348C8.13013 1.91534 7.63428 0.641287 7.63428 0.641287L7.97241 23.236C7.97241 23.2589 7.27393 30.1534 9.05395 30.9957" fill="#499D4A"/>
<path fill-rule="evenodd" clip-rule="evenodd" d="M7.16139 31.2911C7.16139 31.2911 -0.431386 26.0575 0.0192979 16.8423C0.447276 7.62677 5.80934 3.09866 6.84571 2.27953C7.52174 1.5514 7.5442 1.27819 7.58937 0.550053C8.06251 1.57408 7.97242 15.8639 8.03981 17.5475C8.24244 24.0324 7.67945 30.0627 7.16139 31.2911Z" fill="white"/>
<path fill-rule="evenodd" clip-rule="evenodd" d="M7.16139 31.2911C7.16139 31.2911 -0.431386 26.0575 0.0192979 16.8423C0.447276 7.62677 5.80934 3.09866 6.84571 2.27953C7.52174 1.5514 7.5442 1.27819 7.58937 0.550053C8.06251 1.57408 7.97242 15.8639 8.03981 17.5475C8.24244 24.0324 7.67945 30.0627 7.16139 31.2911Z" fill="#58AA50"/>
</svg>
