<svg width="59" height="37" viewBox="0 0 59 37" fill="none" xmlns="http://www.w3.org/2000/svg">
<path d="M13.9215 9.64646H25.0494V10.5656H14.9415V17.4827H24.4467V18.4017H14.9415V25.996H25.1653V26.915H13.9215V9.64646ZM26.0464 9.64646H27.2287L32.4681 17.2408L37.8234 9.64634L45.1075 0L33.1404 18.039L39.3071 26.915H38.0784L32.4681 18.8371L26.8345 26.915H25.629L31.8421 18.0389L26.0463 9.64646H26.0464ZM39.7476 10.5656V9.64634H52.4289V10.5655H46.5866V26.9149H45.5666V10.5656H39.7476V10.5656ZM0 9.64634H1.27507L18.8575 36.986L11.5917 26.9149L1.06638 10.9525L1.02005 26.9152H0V9.64634ZM52.3261 25.7185C52.1176 25.7185 51.9614 25.5508 51.9614 25.3339C51.9614 25.1171 52.1176 24.9493 52.3261 24.9493C52.537 24.9493 52.6908 25.117 52.6908 25.3339C52.6908 25.5507 52.537 25.7185 52.3261 25.7185ZM53.3284 24.7067H53.8743C53.8816 25.0138 54.0975 25.2204 54.4151 25.2204C54.7699 25.2204 54.9708 24.9984 54.9708 24.5827V21.9496H55.5266V24.5852C55.5266 25.3339 55.1098 25.7651 54.42 25.7651C53.7724 25.7651 53.3284 25.3468 53.3284 24.7065V24.7067ZM56.2535 24.6731H56.8043C56.8515 25.0267 57.1839 25.2512 57.6628 25.2512C58.1094 25.2512 58.4369 25.0112 58.4369 24.6808C58.4369 24.3969 58.2284 24.2265 57.7545 24.1104L57.293 23.9942C56.6454 23.8366 56.3503 23.5114 56.3503 22.9642C56.3503 22.3008 56.8713 21.8593 57.6528 21.8593C58.3797 21.8593 58.9107 22.3007 58.943 22.928H58.402C58.35 22.5847 58.0621 22.3704 57.6453 22.3704C57.2063 22.3704 56.9136 22.5899 56.9136 22.9254C56.9136 23.1912 57.102 23.3436 57.5684 23.4572L57.9629 23.5579C58.6973 23.736 59 24.0458 59 24.606C59 25.3184 58.4691 25.7651 57.6206 25.7651C56.8267 25.7651 56.2931 25.339 56.2535 24.673V24.6731Z" fill="black"/>
</svg>
