<svg width="75" height="47" viewBox="0 0 75 47" fill="none" xmlns="http://www.w3.org/2000/svg">
<path d="M37.0766 46.3673C36.8227 46.3673 36.5857 46.2996 36.3656 46.1811L34.1139 44.8435C33.7753 44.6572 33.9446 44.5895 34.0463 44.5557C34.5033 44.4033 34.588 44.3693 35.062 44.0986C35.1128 44.0646 35.1806 44.0816 35.2313 44.1155L36.9582 45.1483C37.0259 45.1821 37.1106 45.1821 37.1613 45.1483L43.9164 41.2371C43.9841 41.2033 44.018 41.1354 44.018 41.0509V33.2455C44.018 33.1607 43.9841 33.0932 43.9164 33.0592L37.1613 29.165C37.0936 29.131 37.0089 29.131 36.9582 29.165L30.2031 33.0592C30.1354 33.093 30.1014 33.1777 30.1014 33.2454V41.0507C30.1014 41.1186 30.1354 41.2031 30.2031 41.2371L32.0485 42.3037C33.0474 42.8116 33.6738 42.2191 33.6738 41.6265V33.9227C33.6738 33.8211 33.7584 33.7195 33.8769 33.7195H34.7403C34.842 33.7195 34.9435 33.8041 34.9435 33.9227V41.6265C34.9435 42.964 34.2155 43.7429 32.9457 43.7429C32.5564 43.7429 32.2517 43.7429 31.3882 43.3195L29.6106 42.3037C29.1704 42.0499 28.8995 41.5756 28.8995 41.0677V33.2624C28.8995 32.7545 29.1704 32.2803 29.6106 32.0264L36.3656 28.1152C36.7889 27.8782 37.3646 27.8782 37.7878 28.1152L44.5427 32.0264C44.9829 32.2803 45.2539 32.7545 45.2539 33.2624V41.0677C45.2539 41.5756 44.9829 42.0499 44.5427 42.3037L37.7878 46.2149C37.5676 46.3166 37.3137 46.3673 37.0767 46.3673H37.0766ZM39.159 41.0001C36.1964 41.0001 35.5868 39.6455 35.5868 38.4942C35.5868 38.3926 35.6715 38.291 35.79 38.291H36.6704C36.7719 38.291 36.8566 38.3587 36.8566 38.4604C36.9921 39.3577 37.3814 39.7979 39.176 39.7979C40.5981 39.7979 41.2077 39.4762 41.2077 38.7143C41.2077 38.274 41.0383 37.9525 38.8205 37.7323C36.9751 37.546 35.8239 37.1397 35.8239 35.6667C35.8239 34.2952 36.9752 33.4824 38.9051 33.4824C41.0721 33.4824 42.1388 34.2275 42.2743 35.8527C42.2743 35.9037 42.2573 35.9544 42.2235 36.0052C42.1895 36.0391 42.1388 36.0729 42.088 36.0729H41.2076C41.1229 36.0729 41.0383 36.0052 41.0214 35.9206C40.8182 34.9894 40.2934 34.6846 38.9051 34.6846C37.3476 34.6846 37.1613 35.2265 37.1613 35.6327C37.1613 36.1238 37.3814 36.2761 39.4807 36.547C41.5631 36.818 42.5451 37.2074 42.5451 38.6634C42.5281 40.1535 41.3093 41.0001 39.159 41.0001Z" fill="#539E43"/>
<path d="M16.1174 15.84C16.1174 15.5353 15.948 15.2472 15.6772 15.0949L8.49885 10.9637C8.3802 10.8958 8.24485 10.862 8.1095 10.845H8.04167C7.90632 10.845 7.77083 10.8958 7.65232 10.9637L0.473999 15.0949C0.203003 15.2472 0.0338135 15.5351 0.0338135 15.84L0.0508057 26.9469C0.0508057 27.0993 0.135474 27.2516 0.270825 27.3195C0.406323 27.4041 0.575513 27.4041 0.694165 27.3195L4.96052 24.8813C5.23137 24.729 5.40071 24.4411 5.40071 24.1364V18.9384C5.40071 18.6337 5.5699 18.3458 5.84089 18.1934L7.65232 17.1436C7.78782 17.059 7.94016 17.025 8.0925 17.025C8.24485 17.025 8.39719 17.059 8.51584 17.1436L10.3273 18.1934C10.5983 18.3458 10.7675 18.6335 10.7675 18.9384V24.1364C10.7675 24.4411 10.9368 24.729 11.2076 24.8813L15.474 27.3195C15.6095 27.4041 15.7787 27.4041 15.9142 27.3195C16.0497 27.2516 16.1343 27.0993 16.1343 26.9469L16.1174 15.84Z" fill="#1F2833"/>
<path d="M50.6207 0.550829C50.4853 0.483001 50.316 0.483001 50.1973 0.550829C50.062 0.635504 49.9773 0.770867 49.9773 0.923224V11.9288C49.9773 12.0303 49.9266 12.1318 49.825 12.1997C49.7234 12.2504 49.6218 12.2504 49.5203 12.1997L47.7257 11.1669C47.5941 11.0919 47.4453 11.0526 47.2939 11.0526C47.1425 11.0526 46.9937 11.0919 46.8622 11.1669L39.6838 15.3151C39.413 15.4674 39.2437 15.7553 39.2437 16.06V24.3394C39.2437 24.6441 39.413 24.9321 39.6838 25.0845L46.8622 29.2327C46.9937 29.3076 47.1425 29.347 47.2939 29.347C47.4453 29.347 47.5941 29.3076 47.7257 29.2327L54.904 25.0845C55.1749 24.9321 55.3442 24.6443 55.3442 24.3394V3.70007C55.3442 3.37836 55.1749 3.09064 54.904 2.93814L50.6208 0.550829H50.6207ZM49.9605 21.6136C49.9605 21.6982 49.9266 21.7659 49.8588 21.7997L47.404 23.2219C47.3697 23.2387 47.3321 23.2474 47.2939 23.2474C47.2558 23.2474 47.2181 23.2387 47.1838 23.2219L44.7291 21.7997C44.6612 21.7659 44.6274 21.6812 44.6274 21.6136V18.769C44.6274 18.6843 44.6612 18.6167 44.7291 18.5828L47.1838 17.1605C47.2181 17.1438 47.2558 17.1351 47.2939 17.1351C47.3321 17.1351 47.3697 17.1438 47.404 17.1605L49.8588 18.5828C49.9266 18.6165 49.9605 18.7013 49.9605 18.769V21.6136Z" fill="#1F2833"/>
<path d="M74.5089 18.7014C74.7799 18.549 74.9323 18.2611 74.9323 17.9563V15.9415C74.9323 15.6368 74.7629 15.3489 74.5089 15.1966L67.3814 11.0654C67.2499 10.9905 67.1011 10.9511 66.9497 10.9511C66.7984 10.9511 66.6496 10.9905 66.518 11.0654L59.3397 15.2134C59.0687 15.3658 58.8995 15.6536 58.8995 15.9585V24.2379C58.8995 24.5426 59.0687 24.8305 59.3397 24.9828L66.4672 29.0464C66.7382 29.1987 67.0597 29.1987 67.3137 29.0464L71.6308 26.6424C71.7663 26.5745 71.851 26.4222 71.851 26.2698C71.851 26.1175 71.7663 25.9651 71.6308 25.8973L64.4186 21.7491C64.2833 21.6645 64.1986 21.529 64.1986 21.3767V18.7862C64.1986 18.6338 64.2833 18.4815 64.4186 18.4136L66.6704 17.1268C66.7363 17.0853 66.8126 17.0633 66.8905 17.0633C66.9684 17.0633 67.0447 17.0853 67.1106 17.1268L69.3622 18.4136C69.4977 18.4983 69.5823 18.6337 69.5823 18.7862V20.8179C69.5823 20.9703 69.667 21.1227 69.8024 21.1903C69.9379 21.275 70.1071 21.275 70.2426 21.1903L74.5089 18.7014Z" fill="#1F2833"/>
<path d="M66.8398 18.312C66.865 18.2954 66.8944 18.2866 66.9244 18.2866C66.9545 18.2866 66.9839 18.2954 67.009 18.312L68.3804 19.1077C68.4312 19.1414 68.4651 19.1923 68.4651 19.2601V20.8516C68.4651 20.9193 68.4312 20.9701 68.3804 21.004L67.009 21.7997C66.9839 21.8163 66.9545 21.8251 66.9244 21.8251C66.8944 21.8251 66.865 21.8163 66.8398 21.7997L65.4685 21.004C65.4176 20.9701 65.3838 20.9193 65.3838 20.8516V19.2601C65.3838 19.1923 65.4176 19.1414 65.4685 19.1077L66.8398 18.312Z" fill="#539E43"/>
<path d="M28.1208 11.0992C27.9892 11.0243 27.8404 10.9849 27.6891 10.9849C27.5377 10.9849 27.3889 11.0243 27.2574 11.0992L20.1299 15.2133C19.8589 15.3656 19.7065 15.6535 19.7065 15.9582V24.2039C19.7065 24.5086 19.8759 24.7965 20.1299 24.9489L27.2574 29.0632C27.3889 29.1381 27.5377 29.1775 27.6891 29.1775C27.8404 29.1775 27.9892 29.1381 28.1208 29.0632L35.2484 24.9489C35.5192 24.7965 35.6717 24.5086 35.6717 24.2039V15.9583C35.6717 15.6536 35.5022 15.3658 35.2484 15.2134L28.1208 11.0992Z" fill="white"/>
<path d="M28.1208 11.0992C27.9892 11.0243 27.8404 10.9849 27.6891 10.9849C27.5377 10.9849 27.3889 11.0243 27.2574 11.0992L20.1299 15.2133C19.8589 15.3656 19.7065 15.6535 19.7065 15.9582V24.2039C19.7065 24.5086 19.8759 24.7965 20.1299 24.9489L27.2574 29.0632C27.3889 29.1381 27.5377 29.1775 27.6891 29.1775C27.8404 29.1775 27.9892 29.1381 28.1208 29.0632L35.2484 24.9489C35.5192 24.7965 35.6717 24.5086 35.6717 24.2039V15.9583C35.6717 15.6536 35.5022 15.3658 35.2484 15.2134L28.1208 11.0992Z" fill="url(#paint0_linear)"/>
<path d="M35.2652 15.2134L28.1039 11.0992C28.0335 11.0637 27.9598 11.0353 27.8837 11.0145L19.8589 24.7629C19.9254 24.8441 20.0056 24.9129 20.096 24.9661L27.2574 29.0805C27.4605 29.199 27.6976 29.2329 27.9176 29.165L35.4516 15.3829C35.4007 15.3152 35.3329 15.2642 35.2652 15.2135V15.2134Z" fill="url(#paint1_linear)"/>
<path fill-rule="evenodd" clip-rule="evenodd" d="M27.0203 9.59217L26.9188 9.643H27.0542L27.0203 9.59217Z" fill="url(#paint2_linear)"/>
<path fill-rule="evenodd" clip-rule="evenodd" d="M35.2823 24.949C35.4854 24.8305 35.6378 24.6273 35.7056 24.4072L27.8498 10.9975C27.6466 10.9637 27.4264 10.9805 27.2404 11.099L20.1298 15.1966L27.799 29.1819C27.9105 29.1636 28.0188 29.1294 28.1206 29.0803L35.2821 24.9491L35.2823 24.949Z" fill="url(#paint3_linear)"/>
<path fill-rule="evenodd" clip-rule="evenodd" d="M35.9426 24.8136L35.8917 24.7289V24.8475L35.9424 24.8136H35.9426Z" fill="url(#paint4_linear)"/>
<path fill-rule="evenodd" clip-rule="evenodd" d="M35.2822 24.949L28.1377 29.0634C28.0369 29.1148 27.9282 29.1491 27.816 29.1649L27.9515 29.4189L35.8747 24.8306V24.729L35.6716 24.3903C35.6377 24.6273 35.4854 24.8305 35.2822 24.949Z" fill="url(#paint5_linear)"/>
<path fill-rule="evenodd" clip-rule="evenodd" d="M35.2822 24.949L28.1377 29.0634C28.0369 29.1148 27.9282 29.1491 27.816 29.1649L27.9515 29.4189L35.8747 24.8306V24.729L35.6716 24.3903C35.6377 24.6273 35.4854 24.8305 35.2822 24.949Z" fill="url(#paint6_linear)"/>
<defs>
<linearGradient id="paint0_linear" x1="30.5929" y1="14.1663" x2="22.7795" y2="26.4423" gradientUnits="userSpaceOnUse">
<stop stop-color="#41873F"/>
<stop offset="0.3288" stop-color="#418B3D"/>
<stop offset="0.6352" stop-color="#419637"/>
<stop offset="0.9319" stop-color="#3FA92D"/>
<stop offset="1" stop-color="#3FAE2A"/>
</linearGradient>
<linearGradient id="paint1_linear" x1="26.6069" y1="21.0471" x2="46.1735" y2="10.4173" gradientUnits="userSpaceOnUse">
<stop offset="0.1376" stop-color="#41873F"/>
<stop offset="0.4032" stop-color="#54A044"/>
<stop offset="0.7136" stop-color="#66B848"/>
<stop offset="0.9081" stop-color="#6CC04A"/>
</linearGradient>
<linearGradient id="paint2_linear" x1="20.9448" y1="9.599" x2="34.1301" y2="9.599" gradientUnits="userSpaceOnUse">
<stop offset="0.09192" stop-color="#6CC04A"/>
<stop offset="0.2864" stop-color="#66B848"/>
<stop offset="0.5968" stop-color="#54A044"/>
<stop offset="0.8624" stop-color="#41873F"/>
</linearGradient>
<linearGradient id="paint3_linear" x1="19.4461" y1="20.0814" x2="35.9391" y2="20.0814" gradientUnits="userSpaceOnUse">
<stop offset="0.09192" stop-color="#6CC04A"/>
<stop offset="0.2864" stop-color="#66B848"/>
<stop offset="0.5968" stop-color="#54A044"/>
<stop offset="0.8624" stop-color="#41873F"/>
</linearGradient>
<linearGradient id="paint4_linear" x1="30.9541" y1="24.7719" x2="35.9059" y2="24.7719" gradientUnits="userSpaceOnUse">
<stop offset="0.09192" stop-color="#6CC04A"/>
<stop offset="0.2864" stop-color="#66B848"/>
<stop offset="0.5968" stop-color="#54A044"/>
<stop offset="0.8624" stop-color="#41873F"/>
</linearGradient>
<linearGradient id="paint5_linear" x1="19.4462" y1="26.9184" x2="35.939" y2="26.9184" gradientUnits="userSpaceOnUse">
<stop offset="0.09192" stop-color="#6CC04A"/>
<stop offset="0.2864" stop-color="#66B848"/>
<stop offset="0.5968" stop-color="#54A044"/>
<stop offset="0.8624" stop-color="#41873F"/>
</linearGradient>
<linearGradient id="paint6_linear" x1="38.3417" y1="13.7763" x2="34.1628" y2="35.672" gradientUnits="userSpaceOnUse">
<stop stop-color="#41873F"/>
<stop offset="0.3288" stop-color="#418B3D"/>
<stop offset="0.6352" stop-color="#419637"/>
<stop offset="0.9319" stop-color="#3FA92D"/>
<stop offset="1" stop-color="#3FAE2A"/>
</linearGradient>
</defs>
</svg>
