<svg width="59" height="53" viewBox="0 0 59 53" fill="none" xmlns="http://www.w3.org/2000/svg">
<path d="M48.5098 17.161C47.8819 16.9437 47.2486 16.7424 46.6107 16.5573C46.7179 16.1156 46.8165 15.6793 46.9041 15.2506C48.3417 8.21164 47.4019 2.54087 44.1917 0.673785C41.1138 -1.11613 36.0801 0.750263 30.9964 5.21272C30.4954 5.65331 30.0055 6.10659 29.5272 6.57213C29.207 6.26256 28.8811 5.959 28.5498 5.6616C23.2218 0.890202 17.8814 -1.12078 14.6746 0.751658C11.5995 2.54715 10.6889 7.87807 11.9832 14.5491C12.112 15.2098 12.2574 15.8671 12.4193 16.5203C11.6633 16.737 10.9339 16.9676 10.2358 17.213C3.98918 19.4098 0 22.8522 0 26.423C0 30.1109 4.28257 33.81 10.7887 36.0529C11.3162 36.234 11.848 36.4018 12.3838 36.5562C12.2098 37.2598 12.0553 37.9681 11.9205 38.6804C10.6866 45.2356 11.6502 50.4406 14.717 52.2247C17.8846 54.0671 23.2011 52.1735 28.3776 47.6092C28.7974 47.2382 29.2079 46.8566 29.6088 46.4649C30.1268 46.969 30.6586 47.4584 31.2036 47.9326C36.2182 52.2846 41.1705 54.042 44.2343 52.253C47.3989 50.4052 48.4275 44.8137 47.0921 38.0109C46.9869 37.4779 46.869 36.9476 46.7384 36.4204C47.1117 36.3089 47.4782 36.194 47.8354 36.0745C54.5992 33.8144 59 30.1602 59 26.423C59 22.8392 54.882 19.3735 48.5098 17.161V17.161ZM47.0428 33.6616C46.7202 33.7693 46.3892 33.8732 46.0518 33.9743C45.3051 31.59 44.2975 29.0548 43.0642 26.4353C44.241 23.8783 45.2099 21.3754 45.9356 19.0067C46.5392 19.1829 47.1249 19.3686 47.6895 19.5646C53.1493 21.4605 56.4796 24.2632 56.4796 26.423C56.4796 28.7233 52.8829 31.7097 47.0428 33.6616V33.6616ZM44.6197 38.5046C45.2101 41.5126 45.2943 44.2324 44.9031 46.3586C44.5519 48.2692 43.8453 49.5428 42.9714 50.0531C41.1122 51.1386 37.1359 49.7276 32.8476 46.0055C32.3406 45.5646 31.8459 45.1096 31.364 44.641C33.0266 42.8072 34.6881 40.6753 36.3097 38.3075C39.1619 38.0523 41.8566 37.6348 44.3002 37.065C44.4205 37.5548 44.5275 38.0351 44.6197 38.5046V38.5046ZM20.1144 49.8655C18.2978 50.5124 16.851 50.531 15.9763 50.0224C14.1153 48.9398 13.3416 44.7605 14.3969 39.1546C14.5224 38.4921 14.666 37.8333 14.8277 37.1789C17.2444 37.7182 19.9194 38.106 22.7784 38.3398C24.411 40.6567 26.1204 42.7862 27.8432 44.651C27.477 45.0083 27.1023 45.3565 26.7192 45.6952C24.4299 47.7134 22.1361 49.1453 20.1144 49.8655V49.8655ZM11.6041 33.6475C8.72716 32.6556 6.35126 31.3666 4.72277 29.96C3.25929 28.6961 2.52064 27.4411 2.52064 26.423C2.52064 24.256 5.72346 21.4921 11.0655 19.6136C11.7138 19.3858 12.3923 19.1708 13.0964 18.969C13.8348 21.3912 14.8032 23.9238 15.9719 26.4848C14.788 29.0836 13.8058 31.6567 13.0602 34.1075C12.5712 33.9662 12.0857 33.8128 11.6041 33.6475V33.6475ZM14.4568 14.0607C13.3481 8.3453 14.0844 4.03394 15.9376 2.95186C17.9113 1.79934 22.276 3.44257 26.8763 7.56262C27.1763 7.8319 27.4715 8.10663 27.7616 8.38668C26.0473 10.2433 24.3536 12.357 22.7355 14.6602C19.9607 14.9196 17.3045 15.3362 14.8625 15.8943C14.712 15.2867 14.5768 14.6754 14.4568 14.0609V14.0607ZM39.9068 20.3993C39.33 19.3944 38.7318 18.4021 38.1126 17.4232C39.9951 17.6633 41.7987 17.982 43.4924 18.3716C42.984 20.0155 42.3502 21.7341 41.6042 23.4961C41.0589 22.4525 40.493 21.4201 39.9068 20.3993V20.3993ZM29.5283 10.2036C30.6908 11.4739 31.8552 12.8921 33.0004 14.431C30.6772 14.3203 28.3502 14.3199 26.0271 14.4296C27.1734 12.9049 28.3477 11.4886 29.5283 10.2036ZM19.0833 20.4168C18.5044 21.4293 17.9491 22.4553 17.4177 23.494C16.6839 21.7383 16.0558 20.0118 15.543 18.3446C17.2264 17.9648 19.0215 17.6542 20.892 17.4185C20.2659 18.4034 19.6628 19.4031 19.0833 20.4165V20.4168ZM20.9457 35.6082C19.0132 35.3907 17.1911 35.0961 15.5082 34.7265C16.0291 33.0296 16.671 31.2664 17.4207 29.473C17.9542 30.5125 18.5118 31.5391 19.0932 32.5521C19.691 33.5935 20.3101 34.6136 20.9457 35.6082ZM29.5979 42.8213C28.4032 41.5215 27.2117 40.0832 26.048 38.5365C27.1778 38.5811 28.3294 38.6039 29.5 38.6039C30.7026 38.6039 31.8913 38.5767 33.0614 38.5242C31.9125 40.0988 30.7526 41.5391 29.5979 42.8213ZM41.628 29.3814C42.4166 31.1946 43.0813 32.9485 43.6091 34.6163C41.8985 35.0101 40.0516 35.3272 38.1055 35.5627C38.7291 34.5656 39.3329 33.556 39.9167 32.5347C40.5103 31.4965 41.0808 30.4452 41.628 29.3814V29.3814ZM37.7335 31.2646C36.8398 32.8305 35.8958 34.3667 34.9031 35.8707C33.1049 35.9991 31.3027 36.0629 29.5 36.062C27.6639 36.062 25.878 36.0043 24.1582 35.8918C23.1396 34.3913 22.1776 32.8524 21.2743 31.2785H21.2746C20.3756 29.7129 19.5358 28.1135 18.7572 26.4836C19.5338 24.8534 20.371 23.2532 21.267 21.6864L21.2667 21.6867C22.1623 20.1195 23.1166 18.5872 24.1275 17.0931C25.8821 16.9592 27.6814 16.8895 29.4998 16.8895H29.5C31.3267 16.8895 33.1283 16.9599 34.8824 17.0947C35.8831 18.5866 36.8313 20.1136 37.7252 21.6729C38.6241 23.2363 39.4724 24.8287 40.2687 26.4476C39.4806 28.0831 38.635 29.6898 37.7335 31.2646V31.2646ZM42.9329 2.87608C44.9084 4.02534 45.6768 8.65982 44.4355 14.7374C44.3562 15.1251 44.2673 15.5201 44.1705 15.9206C41.7224 15.3506 39.0645 14.9268 36.2815 14.6635C34.6604 12.3349 32.9805 10.218 31.2942 8.38529C31.7362 7.95559 32.1886 7.53704 32.6512 7.13002C37.0071 3.30682 41.0781 1.79725 42.9329 2.87608V2.87608ZM29.5 21.109C32.4097 21.109 34.7685 23.4882 34.7685 26.423C34.7685 29.3577 32.4097 31.7369 29.5 31.7369C26.5903 31.7369 24.2315 29.3577 24.2315 26.423C24.2315 23.4882 26.5903 21.109 29.5 21.109V21.109Z" fill="#00D8FF"/>
</svg>
