<svg width="56" height="57" viewBox="0 0 56 57" fill="none" xmlns="http://www.w3.org/2000/svg">
<path d="M44.2919 18.5802C45.2034 14.1649 45.399 10.7783 44.8098 8.31918C44.4594 6.85664 43.8187 5.66352 42.8445 4.80271C41.816 3.89391 40.5157 3.44797 39.0546 3.44797C36.6443 3.44797 34.1104 4.54595 31.4025 6.63184C30.298 7.48263 29.1517 8.50813 27.9612 9.7089C27.8664 9.58704 27.7593 9.4721 27.64 9.36587C24.2742 6.36968 21.4406 4.50811 19.0169 3.79034C17.5758 3.36356 16.2228 3.3229 14.9906 3.73711C13.69 4.17433 12.6537 5.07814 11.9226 6.34408C10.716 8.43334 10.3977 11.1786 10.8476 14.5684C11.031 15.9501 11.3445 17.4551 11.7874 19.0859C11.6203 19.1061 11.4528 19.1431 11.2869 19.198C7.01653 20.6116 3.99263 22.1318 2.16189 23.8692C1.07265 24.9029 0.361358 26.0536 0.104232 27.3275C-0.167165 28.672 0.0974688 30.0207 0.827757 31.2857C2.03215 33.3719 4.24667 35.0173 7.40155 36.3206C8.66834 36.8439 10.1016 37.3178 11.703 37.7441C11.63 37.9089 11.5733 38.0839 11.5354 38.2675C10.6238 42.6829 10.4282 46.0694 11.0174 48.5286C11.3679 49.9911 12.0085 51.1842 12.9827 52.045C14.0112 52.9538 15.3116 53.3998 16.7726 53.3998C19.183 53.3998 21.7168 52.3018 24.4247 50.2159C25.541 49.3561 26.7 48.3178 27.9041 47.1004C28.028 47.294 28.1801 47.474 28.36 47.6341C31.7258 50.6303 34.5594 52.4919 36.9831 53.2097C38.4242 53.6365 39.7773 53.6771 41.0094 53.2629C42.31 52.8257 43.3463 51.9219 44.0774 50.6559C45.284 48.5667 45.6022 45.8214 45.1524 42.4316C44.9624 41 44.6327 39.4359 44.1641 37.7368C44.3473 37.7182 44.5312 37.6795 44.7131 37.6193C48.9835 36.2057 52.0074 34.6854 53.8381 32.9481C54.9274 31.9144 55.6386 30.7636 55.8958 29.4898C56.1672 28.1453 55.9025 26.7966 55.1722 25.5316C53.9679 23.4454 51.7533 21.8 48.5984 20.4967C47.2939 19.9578 45.8128 19.4713 44.1534 19.0353C44.2125 18.8907 44.2592 18.7387 44.2919 18.5802Z" fill="#002C4B"/>
<path fill-rule="evenodd" clip-rule="evenodd" d="M23.6959 19.3632H32.3056C32.8335 19.3632 33.321 19.6455 33.5838 20.1034L37.8964 27.6192C38.1571 28.0734 38.1571 28.6318 37.8964 29.0861L33.5838 36.6019C33.321 37.0597 32.8335 37.3421 32.3056 37.3421H23.6959C23.168 37.3421 22.6804 37.0597 22.4177 36.6019L18.1051 29.0861C17.8444 28.6318 17.8444 28.0734 18.1051 27.6192L22.4177 20.1034C22.6804 19.6455 23.168 19.3632 23.6959 19.3632ZM31.2385 21.2131C31.7667 21.2131 32.2545 21.4957 32.5171 21.954L35.7643 27.6199C36.0244 28.0737 36.0244 28.6315 35.7643 29.0854L32.5171 34.7513C32.2545 35.2095 31.7667 35.4922 31.2385 35.4922H24.763C24.2348 35.4922 23.747 35.2095 23.4844 34.7513L20.2372 29.0854C19.9771 28.6315 19.9771 28.0737 20.2372 27.6199L23.4844 21.954C23.747 21.4957 24.2348 21.2131 24.763 21.2131H31.2385ZM30.0869 23.2364H25.9146C25.3869 23.2364 24.8996 23.5185 24.6367 23.976L22.5442 27.6185C22.2831 28.0731 22.2831 28.6322 22.5442 29.0867L24.6367 32.7292C24.8996 33.1867 25.3869 33.4688 25.9146 33.4688H30.0869C30.6146 33.4688 31.1019 33.1867 31.3648 32.7292L33.4573 29.0867C33.7184 28.6322 33.7184 28.0731 33.4573 27.6185L31.3648 23.976C31.1019 23.5185 30.6146 23.2364 30.0869 23.2364ZM28.9783 25.1731C29.5055 25.1731 29.9926 25.4547 30.2556 25.9117L31.2372 27.6176C31.4991 28.0726 31.4991 28.6326 31.2372 29.0877L30.2556 30.7936C29.9926 31.2505 29.5055 31.5322 28.9783 31.5322H27.0232C26.496 31.5322 26.0089 31.2505 25.7459 30.7936L24.7642 29.0877C24.5024 28.6326 24.5024 28.0726 24.7642 27.6176L25.7459 25.9117C26.0089 25.4547 26.496 25.1731 27.0232 25.1731H28.9783ZM28.0011 27.0808C27.5459 27.0808 27.1259 27.3232 26.8986 27.7167C26.6712 28.1102 26.6712 28.5951 26.8986 28.9885C27.1259 29.3821 27.5459 29.6245 28.0004 29.6245C28.4556 29.6245 28.8756 29.3821 29.1029 28.9885C29.3302 28.5951 29.3302 28.1102 29.1029 27.7167C28.8756 27.3232 28.4556 27.0808 28.0011 27.0808ZM17.6842 28.3529H19.9736Z" fill="#FFD94C"/>
<path fill-rule="evenodd" clip-rule="evenodd" d="M16.1693 32.437C16.5558 32.2161 17.0464 32.3536 17.265 32.744L17.4049 32.9928C18.526 34.9792 19.694 36.8647 20.9088 38.6493C22.3433 40.7568 23.9567 42.8903 25.7489 45.0498C26.0302 45.3888 25.9913 45.8928 25.6614 46.1836L25.4812 46.3418C19.5547 51.5199 15.7029 52.5542 13.9257 49.4447C12.1873 46.4031 12.8164 40.8739 15.813 32.8571C15.8794 32.6792 16.0055 32.5306 16.1693 32.437ZM41.4206 38.5333C41.8485 38.4577 42.258 38.7398 42.3417 39.1678L42.3869 39.4013C43.8516 47.0671 42.8203 50.9 39.293 50.9C35.8428 50.9 31.4509 47.6311 26.1174 41.0932C25.9991 40.9482 25.9352 40.7662 25.9368 40.5788C25.9407 40.1364 26.301 39.781 26.7417 39.7848L27.0228 39.7868C29.269 39.799 31.4526 39.7211 33.5736 39.553C36.0784 39.3545 38.694 39.0146 41.4206 38.5333ZM43.4467 22.2551C43.601 21.8397 44.0656 21.6219 44.4918 21.765L44.7241 21.8435C52.3404 24.4379 55.2343 27.2891 53.4058 30.3972C51.6172 33.4372 46.4164 35.6504 37.8034 37.0367C37.6124 37.0674 37.4164 37.0314 37.2496 36.935C36.8559 36.7075 36.7248 36.2098 36.9567 35.8235L37.1042 35.5768C38.2795 33.6038 39.3418 31.6402 40.291 29.6861C41.412 27.3785 42.4639 24.9015 43.4467 22.2551ZM18.1965 19.9633C18.3875 19.9326 18.5835 19.9686 18.7503 20.065C19.144 20.2925 19.2751 20.7902 19.0432 21.1765L18.8957 21.4232C17.7204 23.3962 16.6581 25.3598 15.7089 27.3139C14.588 29.6215 13.536 32.0985 12.5532 34.7449C12.3989 35.1603 11.9343 35.3781 11.5081 35.235L11.2758 35.1565C3.65948 32.5621 0.765574 29.7109 2.59413 26.6029C4.38272 23.5628 9.58351 21.3496 18.1965 19.9633ZM30.5187 10.6582C36.4452 5.48008 40.297 4.44578 42.0742 7.55531C43.8126 10.5969 43.1835 16.1261 40.1869 24.143C40.1205 24.3208 39.9944 24.4694 39.8306 24.563C39.4441 24.7839 38.9535 24.6464 38.7349 24.256L38.595 24.0072C37.4739 22.0208 36.3059 20.1353 35.0911 18.3507C33.6566 16.2432 32.0432 14.1097 30.251 11.9502C29.9697 11.6112 30.0086 11.1072 30.3385 10.8164L30.5187 10.6582ZM17.0016 5.80527C20.4518 5.80527 24.8437 9.07419 30.1773 15.612C30.2956 15.757 30.3594 15.9391 30.3578 16.1265C30.354 16.5689 29.9936 16.9243 29.5529 16.9205L29.2718 16.9185C27.0256 16.9062 24.842 16.9842 22.721 17.1522C20.2162 17.3507 17.6006 17.6906 14.8741 18.172C14.4461 18.2475 14.0366 17.9655 13.9529 17.5375L13.9078 17.304C12.443 9.63818 13.4743 5.80527 17.0016 5.80527Z" fill="#FF4154"/>
</svg>
