<svg width="53" height="51" viewBox="0 0 53 51" fill="none" xmlns="http://www.w3.org/2000/svg">
<g clip-path="url(#clip0)">
<path d="M36.7234 35.477C38.6792 35.2726 40.163 33.5703 40.0955 31.5274C40.0282 29.4847 38.342 27.8504 36.3187 27.8504H36.1839C34.0929 27.9185 32.4743 29.6889 32.5418 31.7998C32.6093 32.8212 33.0138 33.7064 33.6208 34.3192C31.3278 38.8816 27.8206 42.2182 22.56 45.01C18.9854 46.9167 15.276 47.5976 11.5666 47.1211C8.53155 46.7124 6.17098 45.3507 4.68698 43.1034C2.52888 39.7668 2.32661 36.1577 4.14766 32.5489C5.42919 29.9612 7.45229 28.0546 8.73382 27.1013C8.46406 26.2161 8.05931 24.7181 7.85704 23.6287C-1.92249 30.7785 -0.910733 40.4478 2.05685 45.01C4.28244 48.4149 8.80131 50.5257 13.7922 50.5257C15.141 50.5257 16.4898 50.3895 17.8388 50.0492C26.4718 48.3467 33.014 43.1715 36.7234 35.477V35.477ZM48.5937 27.0333C43.4679 20.9729 35.9141 17.6364 27.2811 17.6364H26.2021C25.5951 16.4107 24.3135 15.5935 22.8972 15.5935H22.7623C20.6717 15.6616 19.0531 17.432 19.1204 19.543C19.1879 21.5857 20.8739 23.22 22.8972 23.22H23.032C24.5158 23.1519 25.7973 22.1986 26.3369 20.9048H27.5509C32.6768 20.9048 37.5327 22.4028 41.9168 25.3309C45.2889 27.578 47.717 30.5062 49.0658 34.0469C50.2123 36.9069 50.1448 39.6987 48.9308 42.0821C47.0425 45.691 43.8726 47.6658 39.691 47.6658C36.9932 47.6658 34.4303 46.8485 33.0813 46.2357C32.3395 46.9167 30.9905 48.006 30.0462 48.6872C32.9465 50.049 35.9141 50.7981 38.7467 50.7981C45.2214 50.7981 50.0101 47.189 51.8311 43.5801C53.7869 39.6306 53.6519 32.8212 48.5937 27.0333V27.0333ZM14.3317 36.6343C14.3992 38.6772 16.0853 40.3113 18.1086 40.3113H18.2436C20.3344 40.2434 21.953 38.4728 21.8855 36.362C21.8182 34.319 20.1319 32.6849 18.1086 32.6849H17.9738C17.8388 32.6849 17.6364 32.6849 17.5018 32.7529C14.7365 28.1225 13.5899 23.0838 13.9947 17.6362C14.2642 13.5505 15.6133 10.0096 17.9738 7.08148C19.9297 4.56199 23.7065 3.33632 26.2696 3.26839C33.4186 3.13211 36.4534 12.1204 36.6559 15.7295C37.5327 15.9337 39.0165 16.4105 40.0282 16.751C39.2188 5.71994 32.4743 0 25.9998 0C19.9297 0 14.3317 4.42613 12.1059 10.9631C9.00358 19.6791 11.0269 28.0546 14.8038 34.6597C14.4667 35.1363 14.2642 35.8854 14.3317 36.6345V36.6343Z" fill="#764ABC"/>
</g>
<defs>
<clipPath id="clip0">
<rect width="53" height="51" fill="white"/>
</clipPath>
</defs>
</svg>
