<svg width="49" height="37" viewBox="0 0 49 37" fill="none" xmlns="http://www.w3.org/2000/svg">
<path d="M42.1631 21.297C40.4585 21.3058 38.9768 21.7192 37.7363 22.3303C37.2809 21.4226 36.8258 20.614 36.7456 20.0209C36.6562 19.329 36.5492 18.9066 36.6562 18.0799C36.7634 17.2532 37.2453 16.0759 37.2363 15.9861C37.2275 15.8963 37.1291 15.4739 36.1474 15.465C35.1657 15.456 34.3178 15.6537 34.2196 15.9142C34.1214 16.1748 33.934 16.7679 33.809 17.3788C33.6394 18.2776 31.8456 21.4854 30.8192 23.1659C30.4889 22.5101 30.2033 21.9348 30.1407 21.4766C30.0515 20.7847 29.9443 20.3623 30.0515 19.5356C30.1587 18.7089 30.6407 17.5318 30.6317 17.4418C30.6227 17.352 30.5245 16.9296 29.5428 16.9208C28.5608 16.9117 27.7129 17.1094 27.6149 17.37C27.5167 17.6307 27.4095 18.2416 27.2043 18.8347C26.999 19.4279 24.616 24.7836 23.9912 26.1673C23.7387 26.7273 23.4739 27.2816 23.1969 27.8298C23.1969 27.8298 23.1879 27.8568 23.1611 27.9017C23.074 28.0735 22.9848 28.2443 22.8935 28.4139V28.4227C22.7595 28.6656 22.6167 28.8901 22.5453 28.8901C22.4917 28.8901 22.3935 28.2431 22.5631 27.3625C22.9201 25.5024 23.768 22.6089 23.7592 22.5101C23.7592 22.4561 23.9198 21.9529 23.2059 21.6922C22.5095 21.4317 22.2597 21.863 22.1972 21.863C22.1348 21.863 22.09 22.0158 22.09 22.0158C22.09 22.0158 22.8667 18.7629 20.6085 18.7629C19.1984 18.7629 17.2526 20.3174 16.2886 21.7192C15.1929 22.3196 14.098 22.9216 13.0041 23.5254C12.4777 23.822 11.9332 24.1186 11.4244 24.3971C11.3886 24.3612 11.353 24.3161 11.3172 24.2803C8.58606 21.3419 3.53447 19.266 3.74865 15.3213C3.82904 13.8835 4.31981 10.1093 13.4505 5.52649C20.9655 1.7972 26.9456 2.8305 27.9809 5.122C29.4624 8.39303 24.7767 14.4676 17.0116 15.3481C14.0484 15.6807 12.4953 14.5304 12.1028 14.0991C11.6922 13.6497 11.6296 13.6227 11.4778 13.7127C11.228 13.8476 11.3886 14.2519 11.4778 14.4855C11.71 15.0964 12.6649 16.1748 14.2804 16.7051C15.7085 17.1722 19.1804 17.433 23.3843 15.7975C28.0879 13.9642 31.7652 8.86921 30.6853 4.60091C29.6052 0.2696 22.4649 -1.15914 15.7085 1.258C11.6922 2.69599 7.33656 4.96031 4.20382 7.90779C0.481922 11.4122 -0.107226 14.4585 0.133754 15.7346C0.999676 20.2635 7.20277 23.2109 9.68397 25.3945C9.55898 25.4664 9.4428 25.5294 9.3448 25.5834C8.1041 26.2033 3.37369 28.6923 2.19558 31.3253C0.856887 34.3086 2.40996 36.4475 3.43628 36.7348C6.62262 37.6246 9.89815 36.0251 11.6564 33.3831C13.4147 30.7412 13.2005 27.3085 12.3883 25.736C12.3794 25.7181 12.3705 25.7 12.3526 25.682C12.6739 25.4934 13.0041 25.2957 13.3255 25.107C13.9161 24.7555 14.5143 24.4169 15.1195 24.0914C14.816 24.9272 14.5928 25.9247 14.4858 27.3625C14.3518 29.0519 15.0389 31.2444 15.9405 32.1069C16.3422 32.4846 16.8152 32.4935 17.1188 32.4935C18.1719 32.4935 18.645 31.6128 19.1716 30.5705C19.8141 29.2946 20.3943 27.8119 20.3943 27.8119C20.3943 27.8119 19.6714 31.8196 21.635 31.8196C22.3489 31.8196 23.0719 30.885 23.3933 30.4088V30.4177C23.3933 30.4177 23.4111 30.3907 23.4468 30.3279C23.5182 30.2111 23.5628 30.139 23.5628 30.139V30.1213C23.8484 29.6179 24.4912 28.4767 25.4461 26.5806C26.6778 24.1365 27.8649 21.0813 27.8649 21.0813C27.8649 21.0813 27.9721 21.8271 28.3378 23.0672C28.5522 23.795 28.9982 24.5948 29.3554 25.3675C29.0698 25.772 28.8912 25.9965 28.8912 25.9965L28.9002 26.0056C28.668 26.311 28.4182 26.6435 28.1415 26.9672C27.1685 28.1352 26.0084 29.4744 25.8477 29.8605C25.6601 30.3188 25.7049 30.6514 26.062 30.921C26.3208 31.1187 26.7848 31.1455 27.2579 31.1187C28.1327 31.0557 28.7484 30.8401 29.0518 30.7054C29.525 30.5346 30.0783 30.2739 30.5959 29.8875C31.551 29.1776 32.1309 28.1622 32.0775 26.8235C32.0508 26.0865 31.8098 25.3496 31.5152 24.6576C31.6046 24.532 31.6848 24.4061 31.7742 24.2803C33.2824 22.0607 34.4517 19.6254 34.4517 19.6254C34.4517 19.6254 34.5589 20.3712 34.9247 21.6115C35.1033 22.2405 35.4693 22.9234 35.7904 23.5883C34.3714 24.7476 33.4966 26.0954 33.1843 26.9761C32.6221 28.6116 33.0593 29.3483 33.8894 29.5191C34.2642 29.6 34.7997 29.4202 35.1925 29.2495C35.6923 29.0878 36.2814 28.8093 36.8438 28.3958C37.7989 27.686 38.718 26.6974 38.6644 25.3587C38.6376 24.7476 38.477 24.1454 38.2538 23.5613C39.4587 23.0583 41.0118 22.7797 42.9931 23.0132C47.2417 23.5164 48.0806 26.1852 47.9199 27.3087C47.7593 28.4318 46.8667 29.0429 46.5724 29.2315C46.2776 29.4204 46.1796 29.4832 46.2064 29.6179C46.242 29.8156 46.3848 29.8068 46.6348 29.7707C46.9829 29.7079 48.8662 28.8631 48.9464 26.7963C49.0804 24.1544 46.5812 21.27 42.1631 21.297V21.297ZM9.3894 32.4216C7.97911 33.9672 6.01567 34.5513 5.16774 34.0571C4.25741 33.5268 4.61438 31.2444 6.34584 29.6091C7.39896 28.6116 8.75565 27.6858 9.65717 27.1198C9.86236 26.994 10.1659 26.8144 10.5319 26.5897C10.5943 26.5537 10.6301 26.5357 10.6301 26.5357L10.8443 26.4008C11.4778 28.7372 10.8711 30.7952 9.3894 32.4216V32.4216ZM19.6536 25.3945C19.1626 26.5988 18.1363 29.6809 17.5115 29.5102C16.976 29.3664 16.6456 27.03 17.4043 24.7206C17.7881 23.5613 18.6002 22.1775 19.0734 21.6384C19.8409 20.7757 20.6889 20.488 20.8941 20.8387C21.153 21.297 19.9569 24.6397 19.6536 25.3945V25.3945ZM28.1237 29.4742C27.9183 29.5821 27.7221 29.654 27.6327 29.6C27.5703 29.564 27.7221 29.4202 27.7221 29.4202C27.7221 29.4202 28.7842 28.2701 29.2036 27.7488C29.4448 27.4434 29.7301 27.084 30.0337 26.6795V26.7963C30.0337 28.1713 28.7126 29.0968 28.1235 29.4742H28.1237ZM34.6569 27.9735C34.5052 27.8656 34.532 27.5062 35.0407 26.3829C35.2371 25.9426 35.7011 25.2059 36.4956 24.4959C36.5848 24.7834 36.6474 25.0621 36.6384 25.3226C36.6294 27.057 35.3979 27.7039 34.6569 27.9735Z" fill="#CD6799"/>
</svg>
