<svg width="62" height="37" viewBox="0 0 62 37" fill="none" xmlns="http://www.w3.org/2000/svg">
<path d="M31 0C22.7334 0 17.5666 4.10051 15.5 12.3013C18.6 8.20079 22.2166 6.66312 26.35 7.68831C28.7082 8.2731 30.3938 9.97054 32.2596 11.8491C35.2991 14.9098 38.8166 18.4519 46.5 18.4519C54.7666 18.4519 59.9334 14.3514 62 6.15065C58.9 10.2512 55.2834 11.7888 51.15 10.7636C48.7918 10.1788 47.1062 8.48141 45.2404 6.60282C42.2009 3.54215 38.6834 0 31 0ZM15.5 18.4519C7.23341 18.4519 2.06659 22.5525 0 30.7532C3.1 26.6527 6.71659 25.1151 10.85 26.1403C13.2082 26.7251 14.8938 28.4225 16.7596 30.3011C19.7991 33.3617 23.3166 36.9039 31 36.9039C39.2666 36.9039 44.4334 32.8034 46.5 24.6026C43.4 28.7031 39.7834 30.2408 35.65 29.2156C33.2918 28.6308 31.6062 26.9334 29.7404 25.0548C26.7009 21.9941 23.1834 18.4519 15.5 18.4519Z" fill="url(#paint0_linear)"/>
<defs>
<linearGradient id="paint0_linear" x1="-1.72236" y1="11.8092" x2="51.6104" y2="42.8067" gradientUnits="userSpaceOnUse">
<stop stop-color="#2298BD"/>
<stop offset="1" stop-color="#0ED7B5"/>
</linearGradient>
</defs>
</svg>
