<svg width="63" height="63" viewBox="0 0 63 63" fill="none" xmlns="http://www.w3.org/2000/svg">
<path d="M57.1134 9.90281L45.7616 4.43756C45.1205 4.12847 44.3992 4.02646 43.6975 4.1457C42.9959 4.26493 42.3487 4.59949 41.8458 5.103L4.68561 38.9813C4.23474 39.3904 3.96486 39.9618 3.93532 40.5699C3.90579 41.178 4.11902 41.7729 4.52811 42.2238C4.57732 42.2769 4.62654 42.3281 4.6797 42.3754L7.71354 45.1316C8.10998 45.4924 8.62026 45.703 9.15578 45.7267C9.69129 45.7505 10.2182 45.5859 10.645 45.2616L55.4045 11.3203C55.7426 11.0638 56.1456 10.9067 56.5681 10.8667C56.9906 10.8268 57.4159 10.9056 57.7961 11.0942C58.1762 11.2829 58.4962 11.5739 58.7199 11.9345C58.9437 12.2952 59.0623 12.7111 59.0625 13.1355V13.0036C59.0624 12.3557 58.8795 11.7209 58.5347 11.1724C58.1899 10.6238 57.6972 10.1838 57.1134 9.90281V9.90281Z" fill="#0065A9"/>
<path d="M57.1134 53.0972L45.7616 58.5644C45.1203 58.8726 44.3992 58.9742 43.6978 58.855C42.9963 58.7358 42.3492 58.4017 41.8458 57.899L4.68561 24.0187C4.23474 23.6096 3.96486 23.0382 3.93532 22.4301C3.90579 21.822 4.11902 21.2271 4.52811 20.7762C4.57732 20.7231 4.62654 20.6719 4.6797 20.6246L7.71354 17.8684C8.11038 17.506 8.62183 17.2946 9.15867 17.2708C9.69551 17.2471 10.2236 17.4126 10.6509 17.7384L55.4045 51.6797C55.7426 51.9362 56.1456 52.0933 56.5681 52.1333C56.9906 52.1732 57.4159 52.0944 57.7961 51.9058C58.1762 51.7171 58.4962 51.4261 58.7199 51.0655C58.9437 50.7048 59.0623 50.2889 59.0625 49.8645V50.0063C59.0604 50.6524 58.8765 51.285 58.5318 51.8316C58.1871 52.3782 57.6956 52.8168 57.1134 53.0972V53.0972Z" fill="#007ACC"/>
<path d="M45.7616 58.5644C45.1203 58.8726 44.3992 58.9742 43.6978 58.855C42.9963 58.7358 42.3492 58.4017 41.8458 57.899C42.1285 58.178 42.4873 58.3674 42.8772 58.4434C43.2671 58.5194 43.6707 58.4787 44.0375 58.3262C44.4044 58.1738 44.718 57.9166 44.9393 57.5866C45.1605 57.2567 45.2795 56.8689 45.2812 56.4716V6.52838C45.2816 6.12929 45.1634 5.73908 44.9418 5.40718C44.7202 5.07529 44.4051 4.81664 44.0363 4.66399C43.6676 4.51135 43.2618 4.47159 42.8705 4.54974C42.4791 4.62789 42.1197 4.82044 41.8379 5.103C42.341 4.59967 42.988 4.26509 43.6895 4.14553C44.391 4.02596 45.1123 4.12732 45.7537 4.43559L57.1036 9.89297C57.6892 10.1725 58.1839 10.612 58.5305 11.1607C58.8771 11.7093 59.0616 12.3448 59.0625 12.9938V50.0063C59.0626 50.6547 58.8796 51.29 58.5344 51.839C58.1892 52.3879 57.696 52.8282 57.1115 53.109L45.7616 58.5644Z" fill="#1F9CF0"/>
</svg>
